<mxfile host="app.diagrams.net" modified="2024-07-22T14:34:35.217Z" agent="Mozilla/5.0 (Windows NT 10.0; Win64; x64) AppleWebKit/537.36 (KHTML, like Gecko) Chrome/123.0.0.0 Safari/537.36 OPR/109.0.0.0" etag="sOShesAhjLhKCZsprEej" version="24.7.1" type="github">
  <diagram name="Page-1" id="XX11-0HXfy3PD_i3t4sz">
    <mxGraphModel dx="829" dy="413" grid="1" gridSize="10" guides="1" tooltips="1" connect="1" arrows="1" fold="1" page="1" pageScale="1" pageWidth="850" pageHeight="1100" math="0" shadow="0">
      <root>
        <mxCell id="0" />
        <mxCell id="1" parent="0" />
        <mxCell id="3fRI9fv5o45u41rRySMn-2" value="" style="rounded=0;whiteSpace=wrap;html=1;" parent="1" vertex="1">
          <mxGeometry x="160" y="130" width="500" height="340" as="geometry" />
        </mxCell>
        <mxCell id="3fRI9fv5o45u41rRySMn-3" value="Admin App(CTk)" style="text;html=1;align=center;verticalAlign=middle;whiteSpace=wrap;rounded=0;" parent="1" vertex="1">
          <mxGeometry x="160" y="100" width="80" height="30" as="geometry" />
        </mxCell>
        <mxCell id="3fRI9fv5o45u41rRySMn-4" value="Status Bar(CTkFrame)" style="rounded=0;whiteSpace=wrap;html=1;" parent="1" vertex="1">
          <mxGeometry x="160" y="450" width="500" height="20" as="geometry" />
        </mxCell>
        <mxCell id="3fRI9fv5o45u41rRySMn-5" value="" style="rounded=0;whiteSpace=wrap;html=1;" parent="1" vertex="1">
          <mxGeometry x="170" y="140" width="480" height="300" as="geometry" />
        </mxCell>
        <mxCell id="3fRI9fv5o45u41rRySMn-6" value="Views Container(Base View)" style="text;html=1;align=center;verticalAlign=middle;whiteSpace=wrap;rounded=0;" parent="1" vertex="1">
          <mxGeometry x="170" y="140" width="180" height="30" as="geometry" />
        </mxCell>
        <mxCell id="3fRI9fv5o45u41rRySMn-7" value="" style="rounded=0;whiteSpace=wrap;html=1;dashed=1;dashPattern=8 8;" parent="1" vertex="1">
          <mxGeometry x="190" y="170" width="430" height="240" as="geometry" />
        </mxCell>
        <mxCell id="3fRI9fv5o45u41rRySMn-8" value="MainFrame(CTkFrame)" style="text;html=1;align=center;verticalAlign=middle;whiteSpace=wrap;rounded=0;" parent="1" vertex="1">
          <mxGeometry x="190" y="170" width="130" height="30" as="geometry" />
        </mxCell>
      </root>
    </mxGraphModel>
  </diagram>
</mxfile>
